<?xml version="1.0" encoding="UTF-8" standalone="no"?>
<!DOCTYPE svg PUBLIC "-//W3C//DTD SVG 1.1//EN" "http://www.w3.org/Graphics/SVG/1.1/DTD/svg11.dtd">
<svg width="100%" height="100%" viewBox="0 0 600 300" version="1.1" xmlns="http://www.w3.org/2000/svg" xmlns:xlink="http://www.w3.org/1999/xlink" xml:space="preserve" xmlns:serif="http://www.serif.com/" style="fill-rule:evenodd;clip-rule:evenodd;stroke-linecap:round;stroke-linejoin:round;stroke-miterlimit:1.5;">
    <g id="Bathtub" transform="matrix(0.885178,0,0,0.885178,-2.45034,30.4866)">
        <g transform="matrix(1,0,0,1,0.818854,2.84217e-14)">
            <path d="M137.688,86.507C137.688,86.507 59.078,86.507 38.115,102.229C17.152,117.951 32.219,141.534 55.147,142.844C78.075,144.154 369.587,146.775 386.619,139.569C403.651,132.363 466.209,133.277 435.75,104.849C416.098,86.507 332.247,89.782 302.768,87.817C276.105,86.04 142.273,87.162 137.688,86.507Z" style="fill:white;stroke:rgb(17,15,9);stroke-width:2.26px;"/>
        </g>
        <g transform="matrix(1,0,0,1,1.39205,-4.09427)">
            <path d="M28.116,128.915C28.116,128.915 41.113,112.145 56.626,124.723C68.365,112.145 80.523,120.95 83.458,125.561C95.197,116.757 116.579,116.757 123.706,126.4C131.672,116.757 147.184,119.273 154.312,125.142C161.439,131.012 158.504,125.981 162.277,123.465C166.051,120.95 180.305,114.661 188.69,124.304C201.268,123.465 201.687,116.757 215.523,123.884C221.811,117.176 237.324,117.176 245.29,122.627C255.352,115.919 257.867,128.915 275.895,124.723C293.923,120.53 293.923,117.596 302.308,125.561C309.435,118.434 327.044,121.369 331.236,125.981C337.106,120.111 351.361,117.596 360.584,128.496C367.292,116.757 386.997,121.369 390.351,128.077C398.736,113.403 413.829,126.4 415.087,128.496C420.957,121.369 436.05,123.046 437.727,127.658C439.404,132.27 370.62,170.756 232.234,160.929C93.848,151.103 45.908,169.78 28.116,128.915Z" style="fill:rgb(236,246,251);stroke:rgb(17,15,9);stroke-width:2.26px;"/>
        </g>
        <path d="M112.141,87.312C107.957,87.541 103.463,87.836 98.817,88.213C68.569,90.446 41.278,93.828 28.004,98.953C-11.016,114.02 7.326,165.117 42.7,169.047C78.075,172.978 327.662,174.943 359.106,169.702C390.55,164.462 454.093,167.082 465.229,142.189C476.366,117.296 454.748,102.884 428.544,95.023C402.341,87.162 236.69,84.542 227.149,83.887C227.149,83.887 167.508,83.887 112.141,87.312ZM98.817,88.213C75.81,90.084 49.078,94.006 38.115,102.229C17.152,117.951 32.219,141.534 55.147,142.844C78.075,144.154 369.587,146.775 386.619,139.569C403.651,132.363 466.209,133.277 435.75,104.849C416.098,86.507 332.247,89.782 302.768,87.817C276.105,86.04 142.273,87.162 137.688,86.507C137.688,86.507 126.844,86.507 112.141,87.312C107.66,87.59 103.208,87.889 98.817,88.213Z" style="fill:rgb(242,245,247);stroke:rgb(17,15,9);stroke-width:2.26px;"/>
        <path d="M23.527,161.155C23.527,161.155 45.917,230.002 75.455,257.484C126.289,304.781 314.04,286.755 345.349,280.412C405.486,268.227 438.292,212.348 447.146,156.535C397.026,173.022 311.427,170.685 212.379,172.085C124.21,173.331 41.444,176.91 23.527,161.155Z" style="fill:white;stroke:rgb(17,15,9);stroke-width:2.26px;"/>
        <path d="M85.015,264.614C85.015,264.614 63.528,281.384 74.534,290.817C85.539,300.251 99.689,285.577 98.117,270.903C94.072,269.418 88.926,268.07 85.015,264.614Z" style="fill:rgb(236,246,251);stroke:rgb(17,15,9);stroke-width:2.26px;"/>
        <path d="M362.539,275.959C362.539,275.959 366.317,306.182 381.429,296.737C396.541,287.292 380.914,274.413 373.873,270.292C369.421,271.797 367.239,274.114 362.539,275.959Z" style="fill:rgb(236,246,251);stroke:rgb(17,15,9);stroke-width:2.26px;"/>
        <g transform="matrix(1.4,0,0,1.26471,-37.348,-74.8918)">
            <ellipse cx="85.823" cy="284.825" rx="5.87" ry="5.702" style="fill:white;"/>
        </g>
        <g transform="matrix(1.4,0,0,1.26471,258.485,-72.8947)">
            <ellipse cx="85.823" cy="284.825" rx="5.87" ry="5.702" style="fill:white;"/>
        </g>
    </g>
    <g id="Sink" transform="matrix(1,0,0,1.00791,-0.852972,0.842781)">
        <g transform="matrix(0.798781,0,0,0.997904,125.441,14.9998)">
            <ellipse cx="461.8" cy="64.098" rx="129.652" ry="27.722" style="fill:none;stroke:rgb(12,15,17);stroke-width:2.2px;"/>
        </g>
        <g transform="matrix(0.713255,0,0,0.736366,163.231,33.8964)">
            <ellipse cx="461.8" cy="64.098" rx="129.652" ry="27.722" style="fill:none;stroke:rgb(12,15,17);stroke-width:2.75px;"/>
        </g>
        <g transform="matrix(0.781667,0,0,0.837649,134.539,39.6409)">
            <path d="M327.845,49.478C327.845,49.478 326.676,114.986 388.253,123.721C449.831,132.455 528.878,124.158 528.878,124.158C528.878,124.158 596.138,108.631 592.644,48.8C585.22,64.522 562.942,70.441 523.637,76.118C484.332,81.796 439.786,80.485 415.33,77.865C390.874,75.245 342.693,72.819 327.845,49.478Z" style="fill:rgb(238,254,255);stroke:black;stroke-width:2.46px;"/>
        </g>
        <g transform="matrix(0.781667,0,0,0.998315,134.539,20.1385)">
            <path d="M438.804,127.761L430.943,263.144C430.943,263.144 453.652,291.094 503.439,264.018C498.198,219.909 486.843,126.45 486.843,126.45L438.804,127.761Z" style="fill:rgb(238,254,255);stroke:black;stroke-width:2.22px;"/>
        </g>
        <g transform="matrix(0.837692,0,0,0.811385,77.3141,0.381268)">
            <path d="M470.371,51.919C470.371,51.919 474.378,50.774 474.951,52.778C475.523,54.781 482.106,61.507 484.968,60.792C487.83,60.076 488.975,60.505 488.975,62.938C488.975,65.371 488.975,68.09 486.828,67.804C484.682,67.518 471.373,57.214 470.371,51.919Z" style="fill:rgb(205,218,226);stroke:rgb(12,15,17);stroke-width:2.42px;"/>
        </g>
        <g transform="matrix(0.837692,0,0,0.811385,77.3141,0.381268)">
            <path d="M499.229,65.253C499.229,65.253 491.805,71.367 486.564,67.873C481.323,64.379 483.507,18.96 483.944,13.283C484.182,10.189 489.516,4.564 495.784,2.101C501.02,0.043 508.787,1.176 510.379,5.859C512.525,12.166 511.894,17.946 511.894,23.623C507.681,26.645 503.596,26.385 503.596,26.385C503.596,26.385 503.596,7.605 495.299,9.352C487.001,11.099 489.184,49.531 499.229,65.253Z" style="fill:rgb(205,218,226);stroke:rgb(12,15,17);stroke-width:2.42px;"/>
        </g>
        <g transform="matrix(0.837692,0,0,0.811385,77.3141,0.381268)">
            <path d="M507.436,51.49C507.436,51.49 496.989,53.207 493.554,62.652C490.12,72.097 496.56,66.516 498.277,66.087C499.994,65.657 507.006,53.207 507.436,51.49Z" style="fill:rgb(205,218,226);stroke:rgb(12,15,17);stroke-width:2.42px;"/>
        </g>
        <g transform="matrix(0.837692,0,0,0.811385,77.3141,0.381268)">
            <path d="M507.149,46.767C507.279,48.193 508.58,36.034 515.02,38.467C521.46,40.9 515.593,47.197 514.448,48.485C513.303,49.773 522.462,45.909 521.46,50.774C520.458,55.64 515.593,53.636 513.446,52.348C511.299,51.06 517.31,60.219 512.874,60.935C508.437,61.65 509.725,58.216 509.01,55.067C508.294,51.919 506.577,60.076 501.854,57.214C497.132,54.352 503.142,53.636 503.142,51.633C503.142,49.629 495.987,44.335 500.137,40.9C504.287,37.466 507.006,45.193 507.149,46.767Z" style="fill:rgb(205,218,226);stroke:rgb(12,15,17);stroke-width:2.42px;"/>
        </g>
        <g transform="matrix(0.837692,0,0,0.811385,77.3141,0.381268)">
            <path d="M471.946,53.779C471.122,53.536 478.099,52.635 477.67,49.916C477.24,47.197 473.52,46.91 471.373,48.628C469.227,50.345 471.659,41.186 467.223,41.186C462.787,41.186 465.649,50.202 466.937,52.348C468.225,54.495 457.492,42.903 453.914,50.774C450.337,58.645 461.642,54.781 463.073,54.781C457.063,57.357 455.202,59.647 457.921,61.078C460.64,62.509 463.502,63.081 469.083,57.357C469.096,60.425 469.942,63.511 473.806,61.793C477.67,60.076 475.809,54.924 471.946,53.779Z" style="fill:rgb(205,218,226);stroke:rgb(12,15,17);stroke-width:2.42px;"/>
        </g>
        <g transform="matrix(0.837692,0,0,0.811385,77.3141,0.381268)">
            <path d="M506.883,25.723C506.883,25.723 495.435,29.204 496.717,32.226C497.999,35.248 504.136,33.508 506.792,32.775C509.448,32.043 517.782,30.761 516.317,26.639C514.851,22.518 508.532,25.723 506.883,25.723Z" style="fill:rgb(205,218,226);stroke:rgb(12,15,17);stroke-width:2.42px;"/>
        </g>
    </g>
    <g id="RubberDuck" transform="matrix(0.684188,0.209323,-0.209323,0.684188,99.4013,-3.46629)">
        <path d="M226.864,117.138C226.864,117.138 237.305,114.39 236.755,102.301C236.206,90.211 224.299,87.83 220.27,87.281C216.24,86.731 187.848,92.593 203.051,115.856C201.498,113.609 201.178,114.206 200.878,113.846C200.578,113.486 187.104,121.84 190.765,137.074C193.258,147.444 206.221,150.24 212.231,150.526C218.242,150.812 241.588,147.247 244.287,144.516C248.421,140.331 257.312,133.343 248.866,103.302C247.582,100.302 242.492,103.502 236.273,107.309C234.556,111.316 233.483,116.092 226.864,117.138Z" style="fill:rgb(237,222,97);stroke:rgb(12,15,17);stroke-width:1.4px;"/>
        <path d="M230.703,120.083C230.703,120.083 225.493,133.63 231.745,134.412C237.997,135.193 241.254,127.508 241.775,122.688C244.12,126.336 248.548,118.26 247.246,109.011" style="fill:none;stroke:rgb(12,15,17);stroke-width:1.4px;"/>
        <g transform="matrix(1,0,0,1,0.907006,0.213413)">
            <path d="M205.469,92.319C205.469,92.319 200.176,98.703 200.71,107.106C200.099,108.007 199.115,107.241 198.882,106.029C198.035,101.634 199.671,95.099 205.469,92.319Z" style="fill:rgb(247,241,191);stroke:rgb(247,241,191);stroke-width:1.4px;"/>
        </g>
        <g transform="matrix(1,0,0,1,0.200075,0.8003)">
            <path d="M202.791,116.385C202.791,116.385 193.12,122.147 191.226,129.323C190.691,131.35 190.861,130.207 191.081,128.281C191.499,124.618 194.724,116.882 200.856,113.984C201.497,115.465 202.791,116.385 202.791,116.385Z" style="fill:rgb(247,241,191);stroke:rgb(247,241,191);stroke-width:1.4px;"/>
        </g>
        <path d="M212.927,119.158C212.927,119.158 217.863,117.691 218.796,118.158C219.73,118.625 220.997,123.026 218.663,125.427C216.329,127.828 214.461,122.893 212.927,123.093C211.394,123.293 206.992,124.76 205.791,124.227C204.591,123.693 203.591,118.024 204.991,117.491C206.392,116.957 210.46,117.558 212.927,119.158Z" style="fill:rgb(205,78,71);stroke:rgb(12,15,17);stroke-width:0.7px;"/>
        <path d="M212.794,118.958C212.794,118.958 209.168,121.613 212.394,123.226C214.928,124.493 214.928,118.891 212.794,118.958Z" style="fill:none;stroke:rgb(12,15,17);stroke-width:0.7px;"/>
        <path d="M209.922,118.355C209.922,118.355 205.578,118.669 204.895,119.42C204.87,118.563 204.885,118.217 205.311,117.949C205.979,117.528 209.403,118.15 209.922,118.355Z" style="fill:rgb(237,192,197);"/>
        <path d="M214.289,119.342C214.289,119.342 214.709,119.971 214.681,120.265C215.436,120.153 217.114,119.803 217.702,119.775C218.289,119.747 219.184,119.72 219.24,119.859C219.198,119.188 218.793,118.824 218.709,118.74C218.625,118.657 216.037,118.615 214.289,119.342Z" style="fill:rgb(237,192,197);"/>
        <path d="M214.723,122.503C214.723,122.503 214.485,123.174 214.345,123.258C214.205,123.342 217.604,125.272 217.786,125.104C217.967,124.936 218.681,125.202 219.24,123.594C218.401,123.72 218.093,123.65 217.492,123.44C216.89,123.23 214.862,122.615 214.723,122.503Z" style="fill:rgb(162,56,56);"/>
        <path d="M210.695,122.195C210.695,122.195 210.82,122.727 211.072,122.908C211.324,123.09 207.618,123.454 207.394,123.664C207.17,123.873 206.107,123.664 205.757,123.468C205.408,123.272 205.324,122.503 205.24,122.111C206.373,122.475 206.625,122.405 207.114,122.377C207.604,122.349 210.303,122.265 210.695,122.195Z" style="fill:rgb(162,56,56);"/>
        <path d="M207.941,99.081C206.545,98.406 204.227,100.404 206.148,102.41C208.069,104.416 209.982,100.067 207.941,99.081Z"/>
        <path d="M225.44,99.806C223.314,99.99 223.434,103.819 226.123,103.733C228.812,103.648 227.753,99.607 225.44,99.806Z"/>
        <path d="M209.05,109.367C209.05,109.367 216.392,113.038 220.873,110.562C225.355,108.087 216.947,107.831 215.879,107.617C214.812,107.404 209.434,109.325 209.05,109.367Z" style="fill:rgb(216,109,53);stroke:black;stroke-width:0.7px;"/>
        <path d="M215.922,101.556C214.811,101.439 213.532,102.666 212.593,104.416C209.733,104.373 206.831,105.142 206.788,106.977C206.745,108.812 209.861,110.008 211.142,109.794C212.422,109.581 214.556,108.855 215.197,108.983C215.837,109.111 218.953,110.306 219.977,110.52C221.001,110.733 224.715,109.965 224.629,108.3C224.544,106.636 224.843,105.91 219.038,104.331C217.587,102.922 217.544,101.727 215.922,101.556Z" style="fill:rgb(223,142,60);stroke:black;stroke-width:0.7px;"/>
        <g transform="matrix(1,0,0,1,0.163901,-0.300486)">
            <path d="M215.599,102.098C215.599,102.098 215.239,104.715 213.703,105.312C212.166,105.91 207.556,105.867 207.172,106.636C207.599,105.312 211.27,104.587 212.55,105.014C213.105,103.947 214.362,101.97 215.599,102.098Z" style="fill:rgb(238,210,170);"/>
        </g>
        <path d="M221.227,105.307C221.227,105.307 222.922,108.278 221.172,110.241C222.197,110.071 224.68,109.787 224.426,107.638C224.364,107.114 224.087,106.118 221.227,105.307Z" style="fill:rgb(204,108,50);"/>
        <path d="M247.992,110.93C247.992,110.93 247.608,125.693 242.152,123.883C240.786,128.969 238.339,134.758 232.146,134.97C238.655,137.211 242.923,132.271 243.67,125.335C245.804,128.43 250.713,116.445 247.992,110.93Z" style="fill:rgb(219,157,75);"/>
        <path d="M227.384,89.611C227.384,89.611 232.72,92.446 232.136,102.116C231.553,111.786 230.969,113.12 222.382,116.788C223.127,118.664 225.3,117.872 226.634,117.622C226.482,117.219 225.901,117.023 226.924,116.579C229.268,115.562 234.529,114.163 235.984,106.358C236.213,105.132 238.967,95.435 227.384,89.611Z" style="fill:rgb(221,156,72);"/>
        <path d="M251.478,118.408C251.478,118.408 251.895,127.995 247.81,133.497C243.725,138.999 239.724,145.084 227.386,147.335C215.048,149.586 203.409,146.839 199.481,146.172C195.553,145.505 204.988,149.743 212.273,149.992C217.328,150.166 236.979,148.017 243.59,144.709C250.123,140.016 254.072,127.284 251.478,118.408Z" style="fill:rgb(221,156,72);"/>
    </g>
    <g id="overflowing">
        <path d="M485.874,53.202C485.874,53.202 399.714,55.237 392.591,76.608C385.467,97.978 436.688,110.529 489.266,109.511C541.843,108.493 601.545,98.656 597.474,82.035C593.404,65.414 555.412,51.167 485.874,53.202Z" style="fill:rgb(175,236,248);stroke:rgb(21,122,217);stroke-width:1px;"/>
    </g>
    <g id="TapWater">
        <g transform="matrix(1,0,0,1.12683,0,-2.88031)">
            <path d="M494.857,26.448C493.797,26.899 502.156,62.361 495.372,68.806C488.587,75.251 483.894,60.259 481.859,61.956C479.824,63.652 478.243,67.992 480.618,73.08C482.992,78.169 484.26,79.193 490.705,80.55C497.15,81.906 502.495,81.017 502.495,78.304C502.495,75.59 501.817,77.964 508.262,80.678C514.707,83.392 520.812,81.356 520.812,75.59C520.812,69.823 517.212,58.147 516.007,63.787C513.053,77.615 505.887,71.859 505.209,67.449C504.53,63.039 506.794,30.428 507.175,25.078C507.472,20.92 500.505,24.045 494.857,26.448Z" style="fill:rgb(175,236,248);stroke:rgb(21,122,217);stroke-width:0.94px;"/>
        </g>
        <path d="M503.627,30.48C503.627,30.48 497.402,88.057 508.962,82.499" style="fill:none;stroke:rgb(21,122,217);stroke-width:0.8px;"/>
        <path d="M512.741,85.167C512.741,85.167 515.854,85.612 516.743,79.165" style="fill:none;stroke:rgb(21,122,217);stroke-width:0.9px;"/>
        <path d="M498.736,77.609C498.736,77.609 488.732,84.945 484.064,74.052" style="fill:none;stroke:rgb(21,122,217);stroke-width:0.8px;"/>
        <path d="M484.674,81.981C484.674,81.981 488.409,86.249 490.365,85.538" style="fill:none;stroke:rgb(21,122,217);stroke-width:0.5px;"/>
        <path d="M502.139,79.385C502.139,79.385 499.898,85.68 493.566,82.87" style="fill:none;stroke:rgb(21,122,217);stroke-width:0.7px;"/>
        <path d="M517.304,71.925C517.304,71.925 516.815,78.307 513.969,78.449" style="fill:none;stroke:rgb(21,122,217);stroke-width:0.5px;"/>
        <path d="M498.402,27.126C498.402,27.126 501.737,33.35 499.736,44.688" style="fill:none;stroke:rgb(21,122,217);stroke-width:0.5px;"/>
    </g>
    <g id="Toothbrush">
        <path d="M545.51,34.06C545.51,34.06 532.19,32.617 529.082,35.947C525.973,39.277 528.527,55.483 528.971,57.259C529.415,59.035 546.176,63.808 554.945,60.7C558.83,53.263 560.051,42.496 560.162,40.276C560.272,38.067 549.839,34.393 545.51,34.06Z" style="fill:none;stroke:black;stroke-width:0.5px;"/>
        <g transform="matrix(1.04901,0.139539,-0.0893277,0.671541,-21.579,-58.4115)">
            <ellipse cx="542.402" cy="60.224" rx="12.654" ry="5.185" style="fill:none;stroke:black;stroke-width:0.56px;"/>
        </g>
        <path d="M563.781,15.565C563.781,15.565 561.738,14.854 560.406,13.789C559.074,12.723 558.009,10.503 556.943,10.503C555.877,10.503 554.723,12.812 556.233,14.055C554.013,13.611 553.213,15.831 555.256,17.074C552.325,17.43 552.414,19.472 553.924,20.183C551.171,20.36 550.993,22.491 553.302,22.935C550.638,23.113 549.928,27.02 553.302,25.866C556.677,24.711 557.387,25.155 558.541,25.333C559.696,25.511 560.317,26.043 561.028,24.711C561.738,23.379 564.669,17.607 563.781,15.565Z" style="fill:none;stroke:black;stroke-width:0.5px;"/>
        <path d="M558.393,13.893C558.393,13.893 559.012,14.657 558.83,15.567C558.648,16.476 558.03,16.367 557.52,16.876C557.011,17.385 557.12,18.258 557.302,19.022C557.484,19.786 555.775,19.895 555.629,20.368C555.484,20.841 555.92,21.423 555.811,22.077C555.702,22.732 555.338,23.751 554.574,23.823" style="fill:none;stroke:black;stroke-width:0.2px;"/>
        <path d="M559.339,16.767C559.339,16.767 559.703,18.804 563.158,19.167" style="fill:none;stroke:black;stroke-width:0.2px;"/>
        <path d="M557.63,19.786C557.63,19.786 560.758,19.968 562.322,21.532" style="fill:none;stroke:black;stroke-width:0.2px;"/>
        <path d="M556.611,22.878C556.611,22.878 558.793,21.895 561.558,23.46" style="fill:none;stroke:black;stroke-width:0.2px;"/>
        <path d="M563.122,14.403C563.122,14.403 563.74,14.584 563.958,15.094C564.177,15.603 564.35,14.112 567.087,15.385C565.677,13.602 563.622,14.221 563.122,14.403Z" style="fill:white;"/>
        <path d="M541.286,22.079C539.97,21.891 534.371,23.121 534.087,25.3C533.803,27.478 531.908,43.202 533.992,50.117C533.27,51.146 532.477,50.874 532.287,52.201C532.098,53.527 531.997,54.821 533.038,55.39C534.08,55.958 544.603,57.619 555.589,53.148C556.523,51.644 556.084,49.622 554.452,48.317C552.936,47.749 552.182,28.959 549.148,23.974C547.677,21.558 543.275,22.363 541.286,22.079Z" style="fill:rgb(253,253,253);stroke:black;stroke-width:0.2px;"/>
        <g transform="matrix(1,0,0,1,-0.109119,-0.400104)">
            <ellipse cx="565.877" cy="17.567" rx="0.6" ry="0.618" style="fill:white;"/>
        </g>
        <g transform="matrix(1,0,0,1,-0.290984,-0.400104)">
            <ellipse cx="565.84" cy="19.313" rx="0.346" ry="0.364" style="fill:white;"/>
        </g>
        <g transform="matrix(0.997412,-0.0719024,0.0719024,0.997412,-1.22684,36.8451)">
            <ellipse cx="542.253" cy="27.06" rx="7.527" ry="2.664" style="fill:none;stroke:black;stroke-width:0.2px;"/>
        </g>
        <path d="M533.379,55.038C533.379,55.038 532.825,55.211 533.414,55.488C534.002,55.766 541.331,57.019 550.528,54.674C553.772,53.615 555.755,53.336 555.825,52.643C555.965,51.915 556.638,50.24 554.36,48.424C552.761,47.148 552.002,26.33 548.505,23.442C546.765,22.604 547.448,22.815 547.364,23.153C547.279,23.492 552.967,41.505 552.967,47.753C553.676,48.988 554.354,48.547 554.631,50.071C554.908,51.596 554.942,52.275 554.042,52.67C553.141,53.064 539.774,56.822 533.379,55.038Z" style="fill:rgb(168,228,235);"/>
        <path d="M532.445,52.37C533.282,51.642 535.043,51.98 536.169,52.067C537.294,52.153 551.714,51.201 554.182,49.815C554.918,49.728 555.351,49.728 555.871,50.334C556.39,50.941 556,52.716 555.741,53.019C555.481,53.322 543.464,57.609 534.35,55.704C531.947,55.79 531.946,52.803 532.445,52.37Z" style="fill:none;stroke:black;stroke-width:0.2px;"/>
        <path d="M537.403,56.007L537.187,53.928" style="fill:none;stroke:black;stroke-width:0.2px;"/>
        <path d="M541.863,55.964L541.647,53.495" style="fill:none;stroke:black;stroke-width:0.2px;"/>
        <path d="M550.653,54.578L550.394,52.37" style="fill:none;stroke:black;stroke-width:0.2px;"/>
        <path d="M541.716,32.394C541.716,32.394 534.403,33.164 535.173,39.996C535.943,46.828 541.716,45.384 543.641,45.288C545.565,45.192 551.242,44.037 550.761,37.494C550.28,30.95 542.678,32.586 541.716,32.394Z" style="fill:rgb(168,228,235);stroke:rgb(168,228,235);stroke-width:0.2px;"/>
        <path d="M538.042,39.123C538.042,39.123 537.254,37.956 537.506,36.254C536.213,36.758 536.213,36.947 536.213,36.474C536.213,36.001 539.051,35.024 539.776,35.497C540.502,35.97 538.736,35.844 538.294,35.875C537.853,35.907 538.326,39.028 538.042,39.123Z" style="fill:white;stroke:white;stroke-width:0.2px;"/>
        <path d="M540.97,36.79C540.815,36.976 541.305,36.183 540.866,36.209C540.427,36.235 540.014,36.661 540.104,37.075C540.195,37.488 540.479,38.004 540.763,37.927C541.047,37.849 541.964,37.178 541.925,36.881C541.887,36.584 541.641,36.287 541.448,36.338C541.254,36.39 541.034,36.713 540.97,36.79Z" style="fill:white;stroke:white;stroke-width:0.2px;"/>
        <path d="M542.946,36.584C542.803,36.798 543.385,35.77 542.649,36.003C541.912,36.235 542.132,37.397 542.674,37.694C543.217,37.991 543.966,36.907 543.953,36.571C543.94,36.235 543.333,36.003 542.946,36.584Z" style="fill:white;stroke:white;stroke-width:0.2px;"/>
        <path d="M544.275,36.192C544.275,36.192 544.574,36.134 544.677,36.246C544.911,36.498 544.898,37.077 544.991,37.238C545.294,37.758 545.62,37.866 546.149,37.783C546.678,37.701 546.777,37.651 546.694,37.453C546.611,37.254 546.049,37.431 545.696,37.246C545.527,37.158 545.305,37.105 545.223,36.609C545.14,36.114 544.991,36.114 545.504,35.965C546.016,35.816 546.479,35.7 546.297,35.485C546.115,35.27 545.223,35.551 545.107,35.651C544.991,35.75 545.091,34.593 544.743,34.692C544.396,34.791 544.727,35.667 544.562,35.733C544.396,35.799 544.033,35.799 544.033,35.948C544.033,36.097 543.977,36.159 544.275,36.192Z" style="fill:white;stroke:white;stroke-width:0.2px;"/>
        <g transform="matrix(1,0,0,1,-0.330626,4.07083)">
            <path d="M544.275,36.192C544.275,36.192 544.574,36.134 544.677,36.246C544.911,36.498 544.898,37.077 544.991,37.238C545.294,37.758 545.62,37.866 546.149,37.783C546.678,37.701 546.777,37.651 546.694,37.453C546.611,37.254 546.049,37.431 545.696,37.246C545.527,37.158 545.305,37.105 545.223,36.609C545.14,36.114 544.991,36.114 545.504,35.965C546.016,35.816 546.479,35.7 546.297,35.485C546.115,35.27 545.223,35.551 545.107,35.651C544.991,35.75 545.091,34.593 544.743,34.692C544.396,34.791 544.727,35.667 544.562,35.733C544.396,35.799 544.033,35.799 544.033,35.948C544.033,36.097 543.977,36.159 544.275,36.192Z" style="fill:white;stroke:white;stroke-width:0.2px;"/>
        </g>
        <path d="M546.778,35.949C546.756,35.707 547.888,34.904 547.875,34.706C547.862,34.507 547.439,33.912 547.201,34.018C546.963,34.124 547.002,35.169 547.201,35.301C547.399,35.433 547.703,35.473 548.008,35.446C548.326,35.419 548.92,35.975 549.132,36.769C549.329,37.51 549.026,37.417 548.907,37.219C548.788,37.02 548.497,35.764 547.902,35.936C547.307,36.108 548.074,37.391 548.1,37.549C548.127,37.708 547.809,37.999 547.571,37.51C547.333,37.02 547.161,36.452 547.135,36.24C547.108,36.028 546.83,35.367 546.751,35.142C546.672,34.917 546.486,33.712 547.069,33.635C547.775,33.541 548.442,34.119 548.196,34.724C548.017,35.163 547.365,35.403 547.193,35.614C547.021,35.826 546.817,36.399 546.778,35.949Z" style="fill:white;stroke:white;stroke-width:0.2px;"/>
        <path d="M537.789,43.71C537.717,43.835 537.662,43.721 537.524,43.456C537.387,43.192 536.847,41.15 536.847,40.907C536.847,40.663 538.54,40.621 538.508,41.277C538.477,41.933 537.916,42.335 537.524,42.346C537.133,42.356 538.201,42.991 537.789,43.71Z" style="fill:white;stroke:white;stroke-width:0.2px;"/>
        <path d="M537.27,41.203L537.429,41.933C537.429,41.933 538.254,41.795 538.096,41.351C537.937,40.907 537.355,41.097 537.27,41.203Z" style="fill:white;stroke:white;stroke-width:0.2px;"/>
        <path d="M541.608,41.869C541.877,41.81 542,42.049 541.746,42.155C541.492,42.261 540.751,42.377 540.518,41.753C540.286,41.129 539.915,42.885 538.815,41.668C537.715,40.452 539.968,39.88 540.254,39.944C540.54,40.007 540.677,41.266 540.794,41.457C540.91,41.647 541.079,41.986 541.608,41.869Z" style="fill:white;stroke:white;stroke-width:0.2px;"/>
        <path d="M540.021,40.282C540.021,40.282 540.233,41.171 540.265,41.245C540.296,41.319 539.619,42.017 539.217,41.467C538.815,40.917 539.778,40.219 540.021,40.282Z" style="fill:white;stroke:white;stroke-width:0.2px;"/>
        <path d="M543.491,40.177C543.421,39.955 542.264,40.177 542.412,40.674C542.56,41.171 543.1,41.235 543.195,41.584C543.29,41.933 542.021,42.07 542.148,42.324C542.275,42.578 543.629,42.07 543.682,41.732C543.735,41.393 542.74,40.801 542.814,40.674C542.888,40.547 543.566,40.409 543.491,40.177Z" style="fill:white;stroke:white;stroke-width:0.2px;"/>
        <path d="M546.831,40.248C546.69,39.988 548.456,40.146 548.363,39.714C548.27,39.283 546.823,39.232 546.493,39.875C546.162,40.518 547.593,42.203 548.744,41.416C549.895,40.628 548.634,41.043 548.465,41.06C548.295,41.077 547.61,41.686 546.831,40.248Z" style="fill:white;stroke:white;stroke-width:0.2px;"/>
        <path d="M562.493,14.46C562.493,14.46 563.936,14.793 563.825,15.903C563.714,17.013 562.626,24.916 560.051,25.449C557.476,25.982 558.719,25.094 558.453,25.36C558.186,25.627 558.186,26.603 559.074,27.136C559.962,27.669 554.013,32.642 552.858,33.974C551.704,35.306 542.291,50.429 545.132,57.595C548.063,60.321 552.237,40.518 553.48,38.92C554.723,37.321 556.41,33.059 562.626,29.595C566.534,24.711 567.333,17.518 567.422,16.009C567.51,14.499 564.402,12.911 562.493,14.46Z" style="fill:rgb(249,162,170);stroke:black;stroke-width:0.5px;"/>
        <path d="M547.068,39.807C547.068,39.807 547.593,39.647 547.737,39.689C547.881,39.731 547.212,39.85 547.068,39.807Z" style="fill:white;stroke:white;stroke-width:0.2px;"/>
        <path d="M536.394,14.546C536.394,14.546 535.829,22.094 536.394,23.425C536.959,24.757 543.094,26.008 546.525,22.336C546.215,19.138 544.668,14.022 544.426,13.376C544.142,13.991 543.17,15.152 540.592,15.394C539.402,15.505 537.484,15.797 536.394,14.546Z" style="fill:white;stroke:black;stroke-width:0.2px;"/>
        <path d="M544.385,13.688C544.385,13.688 540.408,12.526 537.437,14.67C536.74,17.744 537.411,23.847 537.334,24.046C537.256,24.245 542.887,25.976 546.478,22.334C545.987,18.614 544.644,14.626 544.385,13.688Z" style="fill:rgb(92,196,207);stroke:black;stroke-width:0.2px;"/>
        <g transform="matrix(0.931172,-0.134808,0.164536,1.13652,34.1979,70.182)">
            <ellipse cx="541.015" cy="14.647" rx="4.298" ry="1.231" style="fill:none;stroke:black;stroke-width:0.19px;"/>
        </g>
        <path d="M538.212,16.057C538.212,16.057 537.85,22.282 538.057,22.98" style="fill:none;stroke:black;stroke-width:0.2px;"/>
        <path d="M540.072,16.29C540.072,16.29 539.736,22.773 540.02,23.315" style="fill:none;stroke:black;stroke-width:0.2px;"/>
        <path d="M541.518,15.876C541.518,15.876 542.939,22.541 542.861,22.876" style="fill:none;stroke:black;stroke-width:0.2px;"/>
        <path d="M543.197,15.592C543.197,15.592 544.902,21.74 544.902,22.36" style="fill:none;stroke:black;stroke-width:0.2px;"/>
        <path d="M532.967,35.403C532.147,35.34 523.066,37.862 542.931,41.52C562.795,45.178 559.4,38.633 554.804,37.496" style="fill:none;stroke:black;stroke-width:0.2px;"/>
        <path d="M558.576,25.788C558.576,25.788 559.071,25.38 559.274,25.759C559.478,26.137 559.476,27.137 559.709,27.544C559.941,27.952 559.071,30.327 558.314,30.618C557.558,30.909 553.455,34.983 553.076,35.652C552.698,36.321 545.409,45.55 545.267,57.195C544.107,56.183 544.993,50.191 546.511,46.643C547.64,44.004 548.366,41.82 551.057,37.095C552.794,34.046 555.937,31.213 558.218,29.139C559.487,27.984 559.135,27.646 559.396,27.255C559.34,26.864 558.352,26.368 558.576,25.788Z" style="fill:white;"/>
        <path d="M559.047,39.264C559.047,41.537 556.399,56.731 553.813,59.254C551.228,61.777 534.39,60.393 530.003,57.397C536.433,61.261 548.513,62.477 554.402,60.484C557.684,55.673 559.692,41.675 559.804,40.021C559.544,39.772 559.481,39.492 559.047,39.264Z" style="fill:rgb(178,227,231);"/>
    </g>
    <g id="Bubbles">
        <ellipse cx="100.418" cy="109.82" rx="17.541" ry="16.288" style="fill:rgb(178,227,231);stroke:black;stroke-width:0.2px;"/>
        <path d="M101.079,94.594C101.079,94.594 102.362,96.84 100.758,98.764C99.155,100.689 112.626,100.047 112.947,109.028C113.268,118.009 120.966,102.613 101.079,94.594Z" style="fill:rgb(211,252,255);stroke:black;stroke-width:0.2px;"/>
        <g transform="matrix(0.562329,0,0,0.562329,88.2692,19.01)">
            <ellipse cx="100.418" cy="109.82" rx="17.541" ry="16.288" style="fill:rgb(178,227,231);stroke:black;stroke-width:0.36px;"/>
        </g>
        <g transform="matrix(0.562329,0,0,0.562329,88.2692,19.01)">
            <path d="M101.079,94.594C101.079,94.594 102.362,96.84 100.758,98.764C99.155,100.689 112.626,100.047 112.947,109.028C113.268,118.009 120.966,102.613 101.079,94.594Z" style="fill:rgb(211,252,255);stroke:black;stroke-width:0.36px;"/>
        </g>
        <g transform="matrix(0.517857,0,0,0.596154,90.7019,44.6636)">
            <ellipse cx="100.418" cy="109.82" rx="17.541" ry="16.288" style="fill:rgb(178,227,231);stroke:black;stroke-width:0.36px;"/>
        </g>
        <g transform="matrix(0.517857,0,0,0.596154,90.7019,44.6636)">
            <path d="M101.079,94.594C101.079,94.594 102.362,96.84 100.758,98.764C99.155,100.689 112.626,100.047 112.947,109.028C113.268,118.009 120.966,102.613 101.079,94.594Z" style="fill:rgb(211,252,255);stroke:black;stroke-width:0.36px;"/>
        </g>
        <g transform="matrix(1.29989,0,0,1.29932,69.575,-60.3278)">
            <ellipse cx="100.418" cy="109.82" rx="17.541" ry="16.288" style="fill:rgb(178,227,231);stroke:black;stroke-width:0.15px;"/>
        </g>
        <g transform="matrix(1.29989,0,0,1.29932,69.575,-60.3278)">
            <path d="M101.079,94.594C101.079,94.594 102.362,96.84 100.758,98.764C99.155,100.689 112.626,100.047 112.947,109.028C113.268,118.009 120.966,102.613 101.079,94.594Z" style="fill:rgb(211,252,255);stroke:black;stroke-width:0.15px;"/>
        </g>
        <g transform="matrix(1,0,0,1,177.414,0.501171)">
            <ellipse cx="100.418" cy="109.82" rx="17.541" ry="16.288" style="fill:rgb(178,227,231);stroke:black;stroke-width:0.2px;"/>
        </g>
        <g transform="matrix(1,0,0,1,177.414,0.501171)">
            <path d="M101.079,94.594C101.079,94.594 102.362,96.84 100.758,98.764C99.155,100.689 112.626,100.047 112.947,109.028C113.268,118.009 120.966,102.613 101.079,94.594Z" style="fill:rgb(211,252,255);stroke:black;stroke-width:0.2px;"/>
        </g>
        <g transform="matrix(0.585714,0,0,0.6,182.681,-3.68323)">
            <ellipse cx="100.418" cy="109.82" rx="17.541" ry="16.288" style="fill:rgb(178,227,231);stroke:black;stroke-width:0.34px;"/>
        </g>
        <g transform="matrix(0.585714,0,0,0.6,182.681,-3.68323)">
            <path d="M101.079,94.594C101.079,94.594 102.362,96.84 100.758,98.764C99.155,100.689 112.626,100.047 112.947,109.028C113.268,118.009 120.966,102.613 101.079,94.594Z" style="fill:rgb(211,252,255);stroke:black;stroke-width:0.34px;"/>
        </g>
        <g transform="matrix(0.414286,0,0,0.476923,116.701,-22.2419)">
            <ellipse cx="100.418" cy="109.82" rx="17.541" ry="16.288" style="fill:rgb(178,227,231);stroke:black;stroke-width:0.45px;"/>
        </g>
        <g transform="matrix(0.414286,0,0,0.476923,116.701,-22.2419)">
            <path d="M101.079,94.594C101.079,94.594 102.362,96.84 100.758,98.764C99.155,100.689 112.626,100.047 112.947,109.028C113.268,118.009 120.966,102.613 101.079,94.594Z" style="fill:rgb(211,252,255);stroke:black;stroke-width:0.45px;"/>
        </g>
        <g transform="matrix(0.585714,0,0,0.538462,-11.2719,12.096)">
            <ellipse cx="100.418" cy="109.82" rx="17.541" ry="16.288" style="fill:rgb(178,227,231);stroke:black;stroke-width:0.36px;"/>
        </g>
        <g transform="matrix(0.585714,0,0,0.538462,-11.2719,12.096)">
            <path d="M101.079,94.594C101.079,94.594 102.362,96.84 100.758,98.764C99.155,100.689 112.626,100.047 112.947,109.028C113.268,118.009 120.966,102.613 101.079,94.594Z" style="fill:rgb(211,252,255);stroke:black;stroke-width:0.36px;"/>
        </g>
        <g transform="matrix(0.471429,0,0,0.492308,275.848,69.5369)">
            <ellipse cx="100.418" cy="109.82" rx="17.541" ry="16.288" style="fill:rgb(178,227,231);stroke:black;stroke-width:0.41px;"/>
        </g>
        <g transform="matrix(0.471429,0,0,0.492308,275.848,69.5369)">
            <path d="M101.079,94.594C101.079,94.594 102.362,96.84 100.758,98.764C99.155,100.689 112.626,100.047 112.947,109.028C113.268,118.009 120.966,102.613 101.079,94.594Z" style="fill:rgb(211,252,255);stroke:black;stroke-width:0.41px;"/>
        </g>
        <g transform="matrix(0.625,0,0,0.692308,222.777,-21.338)">
            <ellipse cx="100.418" cy="109.82" rx="17.541" ry="16.288" style="fill:rgb(178,227,231);stroke:black;stroke-width:0.3px;"/>
        </g>
        <g transform="matrix(0.625,0,0,0.692308,222.777,-21.338)">
            <path d="M101.079,94.594C101.079,94.594 102.362,96.84 100.758,98.764C99.155,100.689 112.626,100.047 112.947,109.028C113.268,118.009 120.966,102.613 101.079,94.594Z" style="fill:rgb(211,252,255);stroke:black;stroke-width:0.3px;"/>
        </g>
        <g transform="matrix(0.410714,0,0,0.5,269.98,23.5868)">
            <ellipse cx="100.418" cy="109.82" rx="17.541" ry="16.288" style="fill:rgb(178,227,231);stroke:black;stroke-width:0.44px;"/>
        </g>
        <g transform="matrix(0.410714,0,0,0.5,269.98,23.5868)">
            <path d="M101.079,94.594C101.079,94.594 102.362,96.84 100.758,98.764C99.155,100.689 112.626,100.047 112.947,109.028C113.268,118.009 120.966,102.613 101.079,94.594Z" style="fill:rgb(211,252,255);stroke:black;stroke-width:0.44px;"/>
        </g>
        <g transform="matrix(0.571918,0,0,0.571918,154.506,-53.9302)">
            <ellipse cx="100.418" cy="109.82" rx="17.541" ry="16.288" style="fill:rgb(178,227,231);stroke:black;stroke-width:0.35px;"/>
        </g>
        <g transform="matrix(0.571918,0,0,0.571918,154.506,-53.9302)">
            <path d="M101.079,94.594C101.079,94.594 102.362,96.84 100.758,98.764C99.155,100.689 112.626,100.047 112.947,109.028C113.268,118.009 120.966,102.613 101.079,94.594Z" style="fill:rgb(211,252,255);stroke:black;stroke-width:0.35px;"/>
        </g>
        <g transform="matrix(0.732143,0,0,0.788462,29.7167,-46.6195)">
            <ellipse cx="100.418" cy="109.82" rx="17.541" ry="16.288" style="fill:rgb(178,227,231);stroke:black;stroke-width:0.26px;"/>
        </g>
        <g transform="matrix(0.732143,0,0,0.788462,29.7167,-46.6195)">
            <path d="M101.079,94.594C101.079,94.594 102.362,96.84 100.758,98.764C99.155,100.689 112.626,100.047 112.947,109.028C113.268,118.009 120.966,102.613 101.079,94.594Z" style="fill:rgb(211,252,255);stroke:black;stroke-width:0.26px;"/>
        </g>
        <g transform="matrix(0.408904,0,0,0.408904,282.032,-16.1305)">
            <ellipse cx="100.418" cy="109.82" rx="17.541" ry="16.288" style="fill:rgb(178,227,231);stroke:black;stroke-width:0.49px;"/>
        </g>
        <g transform="matrix(0.408904,0,0,0.408904,282.032,-16.1305)">
            <path d="M101.079,94.594C101.079,94.594 102.362,96.84 100.758,98.764C99.155,100.689 112.626,100.047 112.947,109.028C113.268,118.009 120.966,102.613 101.079,94.594Z" style="fill:rgb(211,252,255);stroke:black;stroke-width:0.49px;"/>
        </g>
        <g transform="matrix(0.388356,0,0,0.388356,202.008,-20.2096)">
            <ellipse cx="100.418" cy="109.82" rx="17.541" ry="16.288" style="fill:rgb(178,227,231);stroke:black;stroke-width:0.51px;"/>
        </g>
        <g transform="matrix(0.388356,0,0,0.388356,202.008,-20.2096)">
            <path d="M101.079,94.594C101.079,94.594 102.362,96.84 100.758,98.764C99.155,100.689 112.626,100.047 112.947,109.028C113.268,118.009 120.966,102.613 101.079,94.594Z" style="fill:rgb(211,252,255);stroke:black;stroke-width:0.51px;"/>
        </g>
        <g transform="matrix(0.446497,0,0,0.398146,121.048,89.871)">
            <ellipse cx="100.418" cy="109.82" rx="17.541" ry="16.288" style="fill:rgb(178,227,231);stroke:black;stroke-width:0.47px;"/>
        </g>
        <g transform="matrix(0.446497,0,0,0.398146,121.048,89.871)">
            <path d="M101.079,94.594C101.079,94.594 102.362,96.84 100.758,98.764C99.155,100.689 112.626,100.047 112.947,109.028C113.268,118.009 120.966,102.613 101.079,94.594Z" style="fill:rgb(211,252,255);stroke:black;stroke-width:0.47px;"/>
        </g>
        <g transform="matrix(0.598214,0,0,0.543269,-6.63838,66.9943)">
            <ellipse cx="100.418" cy="109.82" rx="17.541" ry="16.288" style="fill:rgb(178,227,231);stroke:black;stroke-width:0.35px;"/>
        </g>
        <g transform="matrix(0.598214,0,0,0.543269,-6.63838,66.9943)">
            <path d="M101.079,94.594C101.079,94.594 102.362,96.84 100.758,98.764C99.155,100.689 112.626,100.047 112.947,109.028C113.268,118.009 120.966,102.613 101.079,94.594Z" style="fill:rgb(211,252,255);stroke:black;stroke-width:0.35px;"/>
        </g>
        <g transform="matrix(0.352679,0,0,0.6875,311.281,12.001)">
            <ellipse cx="100.418" cy="109.82" rx="17.541" ry="16.288" style="fill:rgb(178,227,231);stroke:black;stroke-width:0.37px;"/>
        </g>
        <g transform="matrix(0.352679,0,0,0.6875,311.281,12.001)">
            <path d="M101.079,94.594C101.079,94.594 102.362,96.84 100.758,98.764C99.155,100.689 112.626,100.047 112.947,109.028C113.268,118.009 120.966,102.613 101.079,94.594Z" style="fill:rgb(211,252,255);stroke:black;stroke-width:0.37px;"/>
        </g>
    </g>
</svg>
