<?xml version="1.0" encoding="UTF-8" standalone="no"?>
<!DOCTYPE svg PUBLIC "-//W3C//DTD SVG 1.1//EN" "http://www.w3.org/Graphics/SVG/1.1/DTD/svg11.dtd">
<svg width="100%" height="100%" viewBox="0 0 500 200" version="1.1" xmlns="http://www.w3.org/2000/svg" xmlns:xlink="http://www.w3.org/1999/xlink" xml:space="preserve" xmlns:serif="http://www.serif.com/" style="fill-rule:evenodd;clip-rule:evenodd;stroke-linecap:round;stroke-linejoin:round;stroke-miterlimit:1.5;">
    <g id="Kitchen">
        <g transform="matrix(-0.856519,0,0,0.986502,336.051,-4.87138)">
            <path d="M179.601,48.293C179.601,35.101 25.277,35.101 25.277,48.293L25.277,96.098C25.277,109.29 84.974,116.988 84.974,116.988L98.818,167.784L117.664,116.234C117.664,116.234 179.601,109.29 179.601,96.098L179.601,48.293Z" style="fill:rgb(246,210,245);stroke:rgb(115,44,102);stroke-width:1.62px;"/>
        </g>
        <path d="M182.846,41.512C186.465,56.405 310.308,58.319 314.242,41.856C316.871,30.858 180.028,29.91 182.846,41.512Z" style="fill:rgb(217,153,206);stroke:rgb(115,44,102);stroke-width:1px;"/>
        <g transform="matrix(1,0,0,1,149.234,17.6209)">
            <text x="55.432px" y="64.32px" style="font-family:'BerlinSansFBDemi-Bold', 'Berlin Sans FB Demi', sans-serif;font-weight:700;font-size:26px;">Kitchen</text>
        </g>
    </g>
    <g id="Dinning-Room" serif:id="Dinning Room">
        <g transform="matrix(-1.06299,0,0,0.986502,187.305,37.4763)">
            <path d="M152.071,120C167.265,120 167.265,24.39 152.071,24.39L52.807,24.39C37.613,24.39 37.613,120 52.807,120L75.432,120L56.142,160.976L98.581,120L152.071,120Z" style="fill:rgb(255,214,144);stroke:rgb(146,103,41);stroke-width:1.46px;"/>
        </g>
        <g transform="matrix(1,0,0,1,-22.4451,35.2435)">
            <text x="55.432px" y="64.32px" style="font-family:'BerlinSansFBDemi-Bold', 'Berlin Sans FB Demi', sans-serif;font-weight:700;font-size:26px;">Dinning</text>
            <text x="55.432px" y="90.32px" style="font-family:'BerlinSansFBDemi-Bold', 'Berlin Sans FB Demi', sans-serif;font-weight:700;font-size:26px;">Room</text>
        </g>
        <path d="M29.29,61.38C29.29,61.38 18.957,122.972 30.369,155.305" style="fill:none;stroke:rgb(146,103,41);stroke-width:1px;"/>
        <g transform="matrix(1,0,0,1,3.19091,0.255273)">
            <path d="M29.29,61.38C29.29,61.38 18.957,122.972 30.369,155.305" style="fill:none;stroke:rgb(146,103,41);stroke-width:1.5px;"/>
        </g>
        <g transform="matrix(-1,0,0,1,158.375,0.356407)">
            <path d="M29.29,61.38C29.29,61.38 18.957,122.972 30.369,155.305" style="fill:none;stroke:rgb(146,103,41);stroke-width:1px;"/>
        </g>
        <g transform="matrix(-1,0,0,1,155.184,0.611679)">
            <path d="M29.29,61.38C29.29,61.38 18.957,122.972 30.369,155.305" style="fill:none;stroke:rgb(146,103,41);stroke-width:1.5px;"/>
        </g>
    </g>
    <g id="Bathroom" transform="matrix(0.986502,0,0,0.986502,315.946,8.50158)">
        <g transform="matrix(-0.868239,0,0,1,201.547,3.55271e-15)">
            <path d="M174.742,43.792C169.137,30.845 128.594,13.903 108.388,13.545C89.085,13.202 64.857,14.231 36.937,37.895C22.117,50.456 18.8,71.695 34.48,101.369C46.504,124.123 75.432,120 75.432,120L117.727,172.272L98.581,123.702C98.581,123.702 144.78,123.887 169.751,103.427C185.412,90.595 182.649,62.059 174.742,43.792Z" style="fill:rgb(210,214,246);stroke:rgb(77,86,152);stroke-width:1.62px;"/>
        </g>
        <g transform="matrix(1.01368,0,0,1.01368,-1.11013,10.5395)">
            <text x="55.432px" y="64.32px" style="font-family:'BerlinSansFBDemi-Bold', 'Berlin Sans FB Demi', sans-serif;font-weight:700;font-size:26px;">Bathroom</text>
        </g>
        <g transform="matrix(0.994932,0.0929934,-0.0682103,0.729778,-303.251,-43.6753)">
            <path d="M444.853,35.123L442,44.157C442,44.157 463.574,51.685 472.07,57.648C470.977,48.837 444.853,35.123 444.853,35.123Z" style="fill:rgb(218,218,218);stroke:rgb(77,86,152);stroke-width:1.16px;"/>
        </g>
    </g>
</svg>
