<?xml version="1.0" encoding="UTF-8" standalone="no"?>
<!DOCTYPE svg PUBLIC "-//W3C//DTD SVG 1.1//EN" "http://www.w3.org/Graphics/SVG/1.1/DTD/svg11.dtd">
<svg width="100%" height="100%" viewBox="0 0 500 200" version="1.1" xmlns="http://www.w3.org/2000/svg" xmlns:xlink="http://www.w3.org/1999/xlink" xml:space="preserve" xmlns:serif="http://www.serif.com/" style="fill-rule:evenodd;clip-rule:evenodd;stroke-linecap:round;stroke-linejoin:round;stroke-miterlimit:1.5;">
    <g id="Classroom" transform="matrix(0.489069,0,0,0.413816,348.34,81.8139)">
        <g transform="matrix(0.958247,0,0,1,0.740834,0)">
            <path d="M38.211,23.577C57.868,12.657 224.39,41.463 282.927,21.951C341.463,2.439 306.504,158.537 300.813,196.748C299.11,208.181 274.626,216.484 240.906,221.963C206.89,247.667 193.799,255.478 166.538,281.937C175.307,249.528 173.718,245.764 163.948,229.299C97.305,232.288 30.473,228.014 26.016,217.886C17.073,197.561 8.943,39.837 38.211,23.577Z" style="fill:rgb(133,91,43);stroke:rgb(17,15,9);stroke-width:4.52px;"/>
        </g>
        <g transform="matrix(0.900849,0,0,0.930301,9.54989,8.72993)">
            <path d="M38.211,23.577C57.868,12.657 224.39,41.463 282.927,21.951C341.463,2.439 306.504,158.537 300.813,196.748C299.102,208.236 274.389,216.565 240.416,222.042C230.569,229.656 195.985,261.056 179.988,273.823C180.438,258.995 179.354,247.446 172.202,228.892C102.933,232.631 30.657,228.432 26.016,217.886C17.073,197.561 8.943,39.837 38.211,23.577Z" style="fill:rgb(43,133,59);stroke:rgb(17,15,9);stroke-width:2.42px;"/>
        </g>
        <g transform="matrix(2.0447,0,0,2.41653,-75.6027,-19.751)">
            <text x="55.432px" y="64.32px" style="font-family:'BerlinSansFBDemi-Bold', 'Berlin Sans FB Demi', sans-serif;font-weight:700;font-size:26px;">Classroom</text>
        </g>
    </g>
    <g id="Kitchen" transform="matrix(1,0,0,1,-57.3764,27.5237)">
        <g transform="matrix(-0.774204,0,0,0.986502,327.618,-4.87138)">
            <path d="M179.601,48.293C179.601,35.101 25.277,35.101 25.277,48.293L25.277,96.098C25.277,109.29 84.974,116.988 84.974,116.988L98.818,167.784L117.664,116.234C117.664,116.234 179.601,109.29 179.601,96.098L179.601,48.293Z" style="fill:rgb(246,210,245);stroke:rgb(115,44,102);stroke-width:1.69px;"/>
        </g>
        <g transform="matrix(0.903895,0,0,1,23.8637,0)">
            <path d="M182.846,41.512C186.465,56.405 310.308,58.319 314.242,41.856C316.871,30.858 180.028,29.91 182.846,41.512Z" style="fill:rgb(217,153,206);stroke:rgb(115,44,102);stroke-width:1.05px;"/>
        </g>
        <g transform="matrix(1,0,0,1,149.234,17.6209)">
            <text x="55.432px" y="64.32px" style="font-family:'BerlinSansFBDemi-Bold', 'Berlin Sans FB Demi', sans-serif;font-weight:700;font-size:26px;">Kitchen</text>
        </g>
    </g>
    <g id="Dinning-Room" serif:id="Dinning Room" transform="matrix(1,0,0,1,-9.73916,1.90549)">
        <g transform="matrix(-0.988385,0,0,0.957964,174.153,-10.528)">
            <path d="M152.071,120C167.265,120 167.265,24.39 152.071,24.39L52.807,24.39C37.613,24.39 37.613,120 52.807,120L75.432,120L56.142,160.976L98.581,120L152.071,120Z" style="fill:rgb(255,214,144);stroke:rgb(146,103,41);stroke-width:1.54px;"/>
        </g>
        <g transform="matrix(1,0,0,1,-27.7381,-13.4523)">
            <text x="55.432px" y="64.32px" style="font-family:'BerlinSansFBDemi-Bold', 'Berlin Sans FB Demi', sans-serif;font-weight:700;font-size:26px;">Dinning</text>
            <text x="55.432px" y="90.32px" style="font-family:'BerlinSansFBDemi-Bold', 'Berlin Sans FB Demi', sans-serif;font-weight:700;font-size:26px;">Room</text>
        </g>
        <g transform="matrix(0.929818,0,0,0.971071,-0.00656739,-46.9202)">
            <path d="M29.29,61.38C29.29,61.38 18.957,122.972 30.369,155.305" style="fill:none;stroke:rgb(146,103,41);stroke-width:1.05px;"/>
        </g>
        <g transform="matrix(0.929818,0,0,0.971071,2.9604,-46.6723)">
            <path d="M29.29,61.38C29.29,61.38 18.957,122.972 30.369,155.305" style="fill:none;stroke:rgb(146,103,41);stroke-width:1.58px;"/>
        </g>
        <g transform="matrix(-0.929818,0,0,0.971071,147.253,-46.5741)">
            <path d="M29.29,61.38C29.29,61.38 18.957,122.972 30.369,155.305" style="fill:none;stroke:rgb(146,103,41);stroke-width:1.05px;"/>
        </g>
        <g transform="matrix(-0.929818,0,0,0.971071,144.286,-46.3262)">
            <path d="M29.29,61.38C29.29,61.38 18.957,122.972 30.369,155.305" style="fill:none;stroke:rgb(146,103,41);stroke-width:1.58px;"/>
        </g>
    </g>
    <g id="Bathroom" transform="matrix(0.993092,0,0,0.982425,203.018,-12.4037)">
        <g transform="matrix(-0.834277,0,0,0.91313,200.727,1.17272)">
            <path d="M174.742,43.792C169.137,30.845 128.594,13.903 108.388,13.545C89.085,13.202 64.857,14.231 36.937,37.895C22.117,50.456 18.8,71.695 34.48,101.369C46.504,124.123 75.432,120 75.432,120L105.167,183.389L98.581,123.702C98.581,123.702 144.78,123.887 169.751,103.427C185.412,90.595 182.649,62.059 174.742,43.792Z" style="fill:rgb(210,214,246);stroke:rgb(77,86,152);stroke-width:1.74px;"/>
        </g>
        <g transform="matrix(1.00696,0,0,1.01789,-0.73724,10.3455)">
            <text x="55.432px" y="64.32px" style="font-family:'BerlinSansFBDemi-Bold', 'Berlin Sans FB Demi', sans-serif;font-weight:700;font-size:26px;">Bathroom</text>
        </g>
        <g transform="matrix(0.994932,0.0929934,-0.0682103,0.729778,-303.251,-43.6753)">
            <path d="M444.853,35.123L442,44.157C442,44.157 463.574,51.685 472.07,57.648C470.977,48.837 444.853,35.123 444.853,35.123Z" style="fill:rgb(218,218,218);stroke:rgb(77,86,152);stroke-width:1.15px;"/>
        </g>
    </g>
</svg>
